# xmcd CD database file
#
# Track frame offsets:
#	150
#	12828
#	25584
#	38882
#	47292
#	57184
#	67983
#	92840
#
# Disc length: 1833 seconds
#
# Revision: 1
# Processed by: cddbd v1.5.2PL0 Copyright (c) Steve Scherf et al.
# Submitted via: CDex 1.70beta2
#
DISCID=55072708
DTITLE=Eran Riklis - Vulcan Junction OST
DYEAR=1999
DGENRE=Blues
TTITLE0=צומת וולקן
TTITLE1=דף חדש
TTITLE2=אחרי הסערה
TTITLE3=בלוז בתי הזיקוק
TTITLE4=בלוז צומת וולקן
TTITLE5=מה אברך
TTITLE6=מה עכשיו
TTITLE7=Video clips... Don't Rip!
EXTD=YEAR: 1999
EXTT0=
EXTT1=
EXTT2=
EXTT3=
EXTT4=
EXTT5=
EXTT6=
EXTT7=
PLAYORDER=
